<svg height="28" viewBox="0 0 26.458334 7.4083332" width="100" id="svg138"
     inkscape:version="0.92.5 (2060ec1f9f, 2020-04-08)" sodipodi:docname="drawing.svg" version="1.1"
     xmlns="http://www.w3.org/2000/svg" xmlns:cc="http://creativecommons.org/ns#"
     xmlns:dc="http://purl.org/dc/elements/1.1/" xmlns:inkscape="http://www.inkscape.org/namespaces/inkscape"
     xmlns:rdf="http://www.w3.org/1999/02/22-rdf-syntax-ns#"
     xmlns:sodipodi="http://sodipodi.sourceforge.net/DTD/sodipodi-0.dtd" xmlns:svg="http://www.w3.org/2000/svg">
    <defs id="defs132"></defs>
    <sodipodi:namedview bordercolor="#666666" borderopacity="1.0" id="base" inkscape:current-layer="layer1"
                        inkscape:cx="58.819778" inkscape:cy="2.9159409" inkscape:document-units="mm"
                        inkscape:pageopacity="0.0" inkscape:pageshadow="2" inkscape:window-height="1026"
                        inkscape:window-maximized="0" inkscape:window-width="1274" inkscape:window-x="1280"
                        inkscape:window-y="0" inkscape:zoom="5.12" pagecolor="#ffffff" showgrid="false"
                        units="px"></sodipodi:namedview>
    <metadata id="metadata135">
        <rdf:rdf>
            <cc:work rdf:about="">
                <dc:format>image/svg+xml</dc:format>
                <dc:type rdf:resource="http://purl.org/dc/dcmitype/StillImage"></dc:type>
                <dc:title></dc:title>
                <dc:title></dc:title>
            </cc:work>
        </rdf:rdf>
    </metadata>
    <g id="layer1" transform="translate(0,-289.59168)" inkscape:groupmode="layer" inkscape:label="Layer 1">
        <rect class="fil0" height="210.00002" id="rect89"
              style="clip-rule:evenodd;fill:none;fill-rule:evenodd;stroke-width:.01;image-rendering:optimizeQuality;shape-rendering:geometricPrecision;text-rendering:geometricPrecision"
              width="297.00003" x="-42.666683" y="43.833324"></rect>
        <g id="g195" transform="matrix(0.09694371,0,0,0.09694371,2.9826127,279.53425)">
            <path d="m 157.10254,161.39524 c -1.7078,0.3231 -3.4849,0.2077 -5.3314,-0.3461 -1.8463,-0.5541 -3.3696,-1.454 -4.5697,-2.7004 -0.6462,-0.6923 -1.1772,-1.5117 -1.5925,-2.458 -0.4155,-0.9461 -0.7386,-1.881 -0.9694,-2.804 -0.7847,1.477 -1.7657,2.8848 -2.9427,4.2235 -1.177,1.3386 -2.5041,2.3771 -3.9812,3.1157 -1.0617,0.5077 -2.204,0.8194 -3.4273,0.9347 -1.2231,0.1154 -2.4118,0.127 -3.5657,0.0346 -1.3388,-0.0924 -2.6543,-0.3461 -3.9467,-0.7617 -1.2925,-0.4153 -2.4695,-1.0154 -3.5312,-1.8001 -0.877,-0.6463 -1.627,-1.4655 -2.2502,-2.4581 -0.6232,-0.9924 -1.1195,-2.0194 -1.4887,-3.081 -0.6001,-1.9387 -0.8655,-3.9234 -0.7961,-5.9545 0.0691,-2.0311 0.3345,-4.0159 0.7961,-5.9546 0.3231,-1.3385 0.6924,-2.6657 1.1079,-3.9812 0.4155,-1.3155 0.9463,-2.5735 1.5925,-3.7735 0.5077,-0.9693 1.0615,-1.9156 1.6617,-2.8389 0.6001,-0.923 1.2924,-1.7771 2.0771,-2.5616 0.6463,-0.64631 1.3156,-1.2117 2.0079,-1.6964 0.6925,-0.48471 1.4309,-0.9348 2.2157,-1.35021 0.6001,-0.32309 1.2117,-0.60009 1.8348,-0.831 0.6232,-0.23069 1.2811,-0.3923 1.9734,-0.48469 1.8002,-0.2307 3.635,-0.12691 5.5044,0.31169 1.8695,0.43861 3.5889,1.1193 5.1583,2.0425 0.3693,0.2309 0.7154,0.4616 1.0385,0.69241 0.3232,0.2309 0.6232,0.4846 0.9002,0.76159 0.6463,-1.38459 1.5232,-2.4925 2.631,-3.3235 1.1079,-0.7845 2.4003,-1.1884 3.8774,-1.21169 1.4771,-0.023 2.8158,0.2887 4.0159,0.93489 0.8771,0.50771 1.6386,1.2 2.2848,2.07721 0.6463,0.87689 1.1309,1.77709 1.454,2.7001 0.3231,0.9233 0.5078,1.8812 0.5541,2.8736 0.0461,0.99239 -0.0231,1.9501 -0.2079,2.8733 -0.1383,0.9233 -0.3345,1.8002 -0.5885,2.6311 -0.2538,0.8308 -0.5424,1.6618 -0.8655,2.4927 -0.1846,0.5538 -0.4847,1.3269 -0.9,2.3195 -0.4155,0.9924 -0.8078,2.0425 -1.177,3.1503 -0.3694,1.1077 -0.6809,2.1578 -0.9349,3.1504 -0.2537,0.9924 -0.3115,1.7655 -0.173,2.3195 0.1847,0.5999 0.5192,1.1077 1.0039,1.5232 0.4846,0.4155 1.004,0.7386 1.558,0.9693 0.5538,0.1846 1.0732,0.4847 1.5578,0.9002 0.4847,0.4153 0.8423,0.9 1.07321,1.454 0.0922,0.2307 0.13849,0.4615 0.13849,0.6924 0,0.2307 0.0231,0.4616 0.0692,0.6923 0.0461,0.6001 -0.1962,1.2578 -0.727,1.9733 -0.5308,0.7154 -1.0501,1.2117 -1.5579,1.4887 -0.4155,0.2307 -0.8308,0.4384 -1.2463,0.623 -0.4153,0.1848 -0.8539,0.3231 -1.3155,0.4155 z"
                  class="fil1" id="path91" inkscape:connector-curvature="0"
                  style="clip-rule:evenodd;fill:#343a40;fill-rule:nonzero;stroke-width:.01;image-rendering:optimizeQuality;shape-rendering:geometricPrecision;text-rendering:geometricPrecision"></path>
            <path d="m 106.00424,161.04914 c -1.5695,0.2307 -3.1387,0.3115 -4.7082,0.2423 -1.569502,-0.0694 -3.092602,-0.3808 -4.569702,-0.9347 -1.1541,-0.4616 -2.22731,-1.1078 -3.2197,-1.9387 -0.9924,-0.831 -1.8118,-1.7771 -2.458,-2.8388 -0.5539,-0.9233 -0.94631,-1.9156 -1.177,-2.9772 -0.2308,-1.0617 -0.3923,-2.1235 -0.4847,-3.185 v -0.6232 c -0.32311,-2.0772 -0.4386,-4.1658 -0.3462,-6.2661 0.0922,-2.1002 0.23069,-4.189 0.41529,-6.2662 -0.96929,0 -1.97309,-0.0691 -3.0118,-0.2077 -1.0385,-0.1385 -1.9501,-0.5307 -2.7349,-1.177 -0.554,-0.4155 -0.9579,-0.9809 -1.2116,-1.69631 -0.254,-0.7156 -0.4039,-1.46559 -0.44999,-2.2504 -0.0463,-0.78469 0.0114,-1.56919 0.173,-2.35399 0.16149,-0.7847 0.4039,-1.5003 0.72699,-2.1465 0.4616,-0.9231 1.0848,-1.63861 1.8695,-2.14641 0.7384,-0.5077 1.5693,-0.7386 2.4925,-0.6923 0.9232,0.0461 1.82321,0.13851 2.70041,0.27681 0.0922,-1.20001 0.19619,-2.377 0.31149,-3.53101 0.11541,-1.1541 0.38081,-2.26179 0.79631,-3.3235 0.36919,-1.0155 0.9347,-1.904 1.6964,-2.6657 0.7616,-0.7617 1.627,-1.3616 2.5963,-1.8002 0.9693,-0.4385 1.985,-0.6923 3.0465,-0.7617 1.0618,-0.0691 2.123302,0.0578 3.185102,0.3809 1.1078,0.3692 2.0541,0.9577 2.8388,1.7655 0.7846,0.8078 1.2925,1.7887 1.5232,2.9427 0.2307,1.1539 0.3578,2.3195 0.3808,3.49651 0.0231,1.1772 -0.0116,2.3656 -0.1038,3.56589 0.8769,0 1.7541,0 2.631,0 0.877,0 1.7771,0.0461 2.7004,0.1385 0.7847,0.0922 1.5809,0.24231 2.3887,0.45001 0.8077,0.2076 1.5348,0.56539 2.181,1.0732 0.5077,0.41549 0.9002,0.96929 1.177,1.6618 0.277,0.69239 0.4502,1.4194 0.5193,2.181 0.0694,0.7615 0.0347,1.5348 -0.1038,2.31939 -0.1385,0.78471 -0.3692,1.47721 -0.6923,2.07721 -0.0463,0.0463 -0.0694,0.0693 -0.0694,0.0693 -0.1846,0.5999 -0.4847,1.154 -0.9,1.6617 -0.4155,0.5077 -0.9002,0.8769 -1.454,1.1078 -0.554,0.277 -1.1541,0.4731 -1.8004,0.5885 -0.6462,0.1155 -1.2924,0.1732 -1.9386,0.1732 -0.9231,0 -1.8347,-0.0577 -2.7349,-0.1732 -0.9002,-0.1154 -1.8118,-0.2423 -2.7348,-0.3808 -0.1385,1.2002 -0.2309,2.4003 -0.277,3.6003 -0.0461,1.2003 -0.0694,2.4003 -0.0694,3.6006 0.0463,0.8308 0.104,1.6617 0.1732,2.4925 0.0691,0.8308 0.2654,1.6386 0.5885,2.4234 0.1846,0.4155 0.45,0.7963 0.7963,1.1425 0.3462,0.3461 0.7271,0.5654 1.1424,0.6576 0.6923,0.1848 1.4079,0.254 2.1463,0.2079 0.7386,-0.0463 1.454,0.0461 2.1466,0.2768 0.8769,0.3231 1.5347,0.8541 1.9731,1.5925 0.4386,0.7386 0.5424,1.5695 0.3117,2.4927 -0.1385,0.7848 -0.4847,1.5348 -1.0387,2.2502 -0.5538,0.7156 -1.2,1.2578 -1.9387,1.6272 -0.7845,0.5077 -1.65,0.9 -2.5963,1.177 -0.9463,0.277 -1.881,0.4847 -2.8042,0.6232 z"
                  class="fil1" id="path93" inkscape:connector-curvature="0"
                  style="clip-rule:evenodd;fill:#343a40;fill-rule:nonzero;stroke-width:.01;image-rendering:optimizeQuality;shape-rendering:geometricPrecision;text-rendering:geometricPrecision"></path>
            <path d="m 77.754828,160.70294 c -1.3847,0.6462 -2.8964,1.0038 -4.535,1.0732 -1.6388,0.0691 -3.1736,-0.1732 -4.6044,-0.727 -1.6158,-0.6924 -3.1043,-1.6733 -4.4661,-2.9427 -1.3616,-1.2694 -2.4578,-2.6888 -3.2888,-4.2582 -0.7846,-1.3847 -1.3616,-2.8503 -1.7309,-4.3966 -0.3694,-1.5464 -0.6692,-3.1042 -0.9001,-4.6737 -0.2771,-1.8463 -0.5194,-3.6811 -0.727,-5.5045 -0.207698,-1.8233 -0.311499,-3.6812 -0.311499,-5.5737 0,-2.8157 0.161499,-5.6199 0.484599,-8.41241 0.3231,-2.79279 0.877,-5.5507 1.6617,-8.2741 0.277,-1.15399 0.6462,-2.2734 1.1079,-3.358 0.4616,-1.0848 0.9923,-2.158 1.5925,-3.2197 0.5538,-0.9231 1.1539,-1.6848 1.8001,-2.2849 1.2464,-1.0154 2.585,-1.731 4.0159,-2.1463 0.6462,-0.2309 1.3155,-0.3578 2.0079,-0.3809 0.6925,-0.023 1.3848,0.0116 2.0771,0.1039 1.3849,0.1385 2.7812,0.4616 4.1891,0.9693 1.4077,0.5077 2.5963,1.2694 3.5657,2.2848 0.7847,0.8772 1.3618,1.8465 1.731,2.9081 0.2307,0.8308 0.3578,1.6849 0.3808,2.5618 0.0231,0.8772 -0.0577,1.731 -0.2423,2.5619 -0.3694,1.5695 -0.8194,3.1042 -1.3502,4.6044 -0.5308,1.5001 -1.0501,3.03491 -1.5578,4.6043 -0.554,1.98481 -1.0501,3.98121 -1.4887,5.98931 -0.4386,2.00779 -0.77309,4.0273 -1.004,6.0583 -0.1846,1.6156 -0.2768,3.2426 -0.2768,4.8812 0,1.6388 0.25371,3.2197 0.7614,4.7429 0.231,0.7386 0.5078,1.454 0.8309,2.1465 0.3231,0.6924 0.7847,1.2925 1.3848,1.8002 0.4156,0.3692 0.8194,0.727 1.21171,1.0732 0.3923,0.3462 0.70399,0.7501 0.93469,1.2117 0.6462,1.2924 0.5885,2.5502 -0.173,3.7735 -0.76169,1.2231 -1.7888,2.158 -3.0812,2.8042 z"
                  class="fil1" id="path95" inkscape:connector-curvature="0"
                  style="clip-rule:evenodd;fill:#343a40;fill-rule:nonzero;stroke-width:.01;image-rendering:optimizeQuality;shape-rendering:geometricPrecision;text-rendering:geometricPrecision"></path>
            <path d="m -3.1853769,160.97974 c -0.9232,0.2309 -1.881,0.3348 -2.873402,0.3117 -0.992499,-0.0231 -1.973299,-0.1038 -2.942698,-0.2423 -0.9232,-0.1846 -1.8579021,-0.3925 -2.8041021,-0.6232 -0.946301,-0.2307 -1.811901,-0.6232 -2.596599,-1.177 -0.923002,-0.6462 -1.707801,-1.4656 -2.354001,-2.458 -0.6462,-0.9924 -1.2233,-2.0195 -1.731,-3.0812 -1.2464,-2.585 -2.1694,-5.2737 -2.769501,-8.0663 -0.6002,-2.7925 -1.084799,-5.5967 -1.454,-8.4125 0,-0.0923 -0.0231,-0.2885 -0.0694,-0.5886 -0.0461,-0.3 -0.1038,-0.6231 -0.173,-0.9693 -0.0693,-0.3462 -0.1269,-0.6809 -0.1732,-1.004 -0.0461,-0.3231 -0.0691,-0.5308 -0.0691,-0.623 -0.2309,-0.9232 -0.4039,-1.8579 -0.5194,-2.80421 -0.1154,-0.94629 -0.0807,-1.88089 0.1039,-2.80419 0.1385,-0.50771 0.2654,-1.027 0.3808,-1.55781 0.1155,-0.531 0.3348,-1.00399 0.6579,-1.4196 0.2768,-0.4614 0.6231,-0.84219 1.0385,-1.14229 0.4155,-0.30001 0.877101,-0.54241 1.384801,-0.72701 1.5693,-0.60009 3.1849,-0.9232 4.846699,-0.96929 0.692401,-0.0463 1.396302,-0.0347 2.111701,0.0345 0.7156,0.0693 1.3732,0.2886 1.9734,0.65779 0.415501,0.23071 0.773102,0.54241 1.073102,0.93471 0.3000981,0.39239 0.5654991,0.7963 0.7963991,1.21159 0.553799,1.29251 0.9116,2.64271 1.0732,4.05061 0.161499,1.4079 0.311401,2.8042 0.4499,4.1889 0.231,2.0771 0.4617,4.1429 0.692401,6.1968 0.2309,2.0542 0.576998,4.1197 1.038699,6.1969 0.600101,-2.3079 1.142301,-4.5927 1.627,-6.8545 0.4846,-2.2618 0.934802,-4.5467 1.3501,-6.8548 0.1847,-1.0615 0.369501,-2.1002 0.554101,-3.1156 0.184599,-1.0155 0.507701,-1.9848 0.969301,-2.9081 0.4153,-0.9693 1.06159797,-1.754 1.93869997,-2.3542 0.507698,-0.32311 1.17699803,-0.54241 2.00779803,-0.6576 0.8309,-0.1155 1.696403,-0.1501 2.596602,-0.1039 0.899999,0.0462 1.765499,0.1616 2.596301,0.3462 0.8308,0.18459 1.523399,0.4153 2.077199,0.6923 1.0153989,0.6002 1.8002009,1.3619 2.3542019,2.2849 0.323098,0.6462 0.530799,1.3271 0.623199,2.0425 0.0922,0.7156 0.1152,1.4426 0.0691,2.181 -0.277001,3.9698 -0.8308,7.9163 -1.6617,11.84 -0.8308,3.9234 -2.1465009,7.6393 -3.9466999,11.1474 -0.5999,1.154 -1.303901,2.2502 -2.1116,3.2889 -0.807802,1.0385 -1.742702,1.8809 -2.804202,2.5272 -0.415499,0.277 -0.888598,0.4961 -1.41940003,0.6576 -0.530899,0.1616 -1.050099,0.2886 -1.557999,0.3808 -0.36919897,0.0925 -0.75010097,0.1502 -1.14230097,0.1732 -0.392499,0.0231 -0.796398,0.0808 -1.2117,0.173 z"
                  class="fil1" id="path97" inkscape:connector-curvature="0"
                  style="clip-rule:evenodd;fill:#343a40;fill-rule:nonzero;stroke-width:.01;image-rendering:optimizeQuality;shape-rendering:geometricPrecision;text-rendering:geometricPrecision"></path>
            <path d="m 229.29564,172.69925 c -0.78478,0.277 -1.60419,0.47299 -2.45808,0.5885 -0.85392,0.1154 -1.71942,0.17319 -2.59652,0.17319 -1.15398,0.0922 -2.31949,0.0461 -3.49649,-0.13849 -1.177,-0.18471 -2.2965,-0.531 -3.3581,-1.03871 -0.8771,-0.41539 -1.6733,-0.9808 -2.3888,-1.6964 -0.7154,-0.71539 -1.327,-1.5117 -1.8347,-2.3887 -0.5079,-0.7847 -0.8655,-1.65019 -1.0734,-2.5965 -0.2076,-0.9461 -0.3575,-1.881 -0.4499,-2.804 -0.0462,-0.6001 -0.1155,-1.1772 -0.2077,-1.731 -0.0924,-0.554 -0.1616,-1.1079 -0.2077,-1.6619 -0.1385,-2.5849 -0.0807,-5.1351 0.173,-7.6507 0.254,-2.5157 0.704,-5.0199 1.3502,-7.5124 0.1846,-0.6925 0.45,-1.3618 0.7962,-2.008 0.3463,-0.6462 0.8194,-1.177 1.4195,-1.5925 0.8308,-0.6463 1.8002,-1.0616 2.908,-1.2462 1.1079,-0.1848 2.1925,-0.2309 3.2542,-0.1385 0.5077,0.0461 1.0271,0.1038 1.5578,0.173 0.53081,0.0693 1.05021,0.2193 1.55789,0.4502 0.78471,0.2307 1.5348,0.5654 2.25042,1.0038 0.7153,0.4386 1.28079,0.981 1.69629,1.6272 0.50771,0.8308 0.8308,1.7541 0.96931,2.7695 0.13858,1.0155 0.1616,1.9848 0.0692,2.908 -0.0922,1.1079 -0.2654,2.2272 -0.51929,3.3581 -0.25379,1.1308 -0.50779,2.2503 -0.7615,3.3582 -0.254,1.1076 -0.48469,2.2155 -0.6926,3.3233 -0.20759,1.1079 -0.2884,2.2157 -0.24231,3.3235 0,0.4617 0.0577,0.9233 0.1732,1.3847 0.11541,0.4616 0.35782,0.87711 0.72702,1.24641 0.13849,0.13849 0.3692,0.27699 0.69228,0.41549 0.32311,0.1385 0.60011,0.1615 0.8309,0.0691 0.50792,-0.1385 1.01561,-0.2884 1.52331,-0.45 0.50771,-0.1615 1.0155,-0.2192 1.52321,-0.1731 0.4155,0.0463 0.8078,0.1962 1.17718,0.45011 0.3692,0.25379 0.66932,0.56549 0.90001,0.93469 0.2309,0.3692 0.40391,0.78471 0.5193,1.2464 0.11549,0.4614 0.12689,0.8769 0.0347,1.2461 -0.0924,0.5077 -0.30011,0.9694 -0.6232,1.3849 -0.32311,0.4153 -0.66931,0.78471 -1.0387,1.1078 -0.59991,0.50781 -1.2577,0.9463 -1.9731,1.3155 -0.71562,0.3693 -1.44262,0.69241 -2.18102,0.96941 z"
                  class="fil1" id="path99" inkscape:connector-curvature="0"
                  style="clip-rule:evenodd;fill:#343a40;fill-rule:nonzero;stroke-width:.01;image-rendering:optimizeQuality;shape-rendering:geometricPrecision;text-rendering:geometricPrecision"></path>
            <path d="m 203.88485,174.01475 c -1.7078,0.32309 -3.4849,0.2076 -5.3314,-0.34621 -1.8462,-0.55399 -3.3696,-1.454 -4.5697,-2.7003 -0.6462,-0.6924 -1.1772,-1.5118 -1.5925,-2.45809 -0.4155,-0.9461 -0.7386,-1.88091 -0.9693,-2.80401 -0.7847,1.4771 -1.7657,2.8848 -2.9427,4.2236 -1.177,1.3385 -2.5041,2.377 -3.9812,3.1156 -1.0618,0.50781 -2.2041,0.81941 -3.4274,0.93471 -1.2231,0.11549 -2.4117,0.12709 -3.5657,0.0347 -1.33871,-0.0924 -2.65421,-0.34621 -3.94671,-0.7617 -1.2924,-0.41531 -2.46939,-1.0154 -3.5312,-1.80021 -0.87689,-0.6462 -1.627,-1.4654 -2.2501,-2.458 -0.62319,-0.9924 -1.11949,-2.01949 -1.48869,-3.081 -0.60021,-1.9387 -0.86551,-3.9235 -0.7962,-5.9546 0.0692,-2.0311 0.3345,-4.0158 0.7962,-5.9545 0.32309,-1.3386 0.69229,-2.6657 1.1078,-3.9812 0.41549,-1.3155 0.94629,-2.5735 1.59249,-3.7736 0.5078,-0.9693 1.0616,-1.9156 1.66171,-2.8388 0.60009,-0.9231 1.2925,-1.7771 2.07719,-2.5617 0.6462,-0.6462 1.3155,-1.2117 2.00781,-1.6963 0.6926,-0.4847 1.43099,-0.9349 2.2157,-1.3502 0.60009,-0.3231 1.2117,-0.6001 1.83489,-0.831 0.62321,-0.2308 1.28101,-0.3923 1.97331,-0.4847 1.8002,-0.2307 3.6351,-0.1269 5.5044,0.3117 1.8695,0.4385 3.5889,1.1192 5.1584,2.0425 0.3692,0.2309 0.7154,0.4616 1.0385,0.6923 0.3231,0.2309 0.6232,0.4847 0.9002,0.7617 0.6462,-1.3847 1.5231,-2.4925 2.631,-3.3235 1.1078,-0.7846 2.4003,-1.1885 3.8773,-1.2117 1.4771,-0.0231 2.8159,0.2886 4.0159,0.9348 0.8772,0.5078 1.6386,1.2001 2.2849,2.0772 0.6462,0.877 1.1309,1.7772 1.454,2.7002 0.3231,0.9232 0.5077,1.8811 0.554,2.8735 0.0461,0.9924 -0.0231,1.9502 -0.2079,2.8734 -0.1383,0.9232 -0.3345,1.8002 -0.5885,2.631 -0.2537,0.8308 -0.5424,1.6619 -0.8655,2.4927 -0.1846,0.5538 -0.4846,1.3269 -0.9,2.3195 -0.4155,0.9924 -0.8077,2.0425 -1.177,3.1504 -0.3694,1.1076 -0.6809,2.1578 -0.9348,3.1503 -0.2538,0.9924 -0.3115,1.7656 -0.173,2.3196 0.1846,0.5999 0.5191,1.10761 1.0038,1.5231 0.4847,0.4156 1.004,0.73871 1.5581,0.9694 0.5538,0.1846 1.0731,0.4847 1.5578,0.9002 0.4847,0.4153 0.8423,0.9 1.0732,1.454 0.0922,0.23071 0.1385,0.4614 0.1385,0.69231 0,0.23069 0.023,0.4616 0.0691,0.69229 0.0461,0.60021 -0.1962,1.2578 -0.727,1.9734 -0.5308,0.71541 -1.0501,1.21171 -1.5578,1.48871 -0.4155,0.23069 -0.8309,0.43839 -1.2464,0.62299 -0.4153,0.18481 -0.8539,0.32311 -1.3155,0.41551 z"
                  class="fil1" id="path101" inkscape:connector-curvature="0"
                  style="clip-rule:evenodd;fill:#343a40;fill-rule:nonzero;stroke-width:.01;image-rendering:optimizeQuality;shape-rendering:geometricPrecision;text-rendering:geometricPrecision"></path>
            <path d="m 231.10685,129.36073 c -1.2096,1.20931 -2.48229,2.33011 -3.85509,3.31071 -0.74371,0.5312 -1.51931,1.02049 -2.29052,1.5193 -0.771,0.499 -1.59478,0.8996 -2.47179,1.202 -0.5139,0.1813 -1.0429,0.3024 -1.5873,0.3628 -0.5443,0.0605 -1.0733,-0.0151 -1.5872,-0.2268 -0.5142,-0.2117 -0.9374,-0.567 -1.27,-1.0658 -0.3326,-0.4988 -0.5595,-1.0205 -0.6803,-1.5646 -0.1511,-0.635 -0.2344,-1.2927 -0.2495,-1.97301 -0.0152,-0.68029 0.1286,-1.3229 0.431,-1.9275 0.2115,-0.42319 0.6423,-0.8769 1.2924,-1.36059 0.6501,-0.4837 1.3682,-0.9525 2.1543,-1.406 0.7861,-0.45351 1.56481,-0.8616 2.33581,-1.2244 0.77099,-0.3629 1.36818,-0.635 1.79149,-0.81651 1.8933,-1.1044 4.78081,-1.0488 5.9867,5.1704 z"
                  class="fil2" id="path103" inkscape:connector-curvature="0"
                  style="clip-rule:evenodd;fill:#6666ff;fill-rule:nonzero;stroke-width:.01;image-rendering:optimizeQuality;shape-rendering:geometricPrecision;text-rendering:geometricPrecision"></path>
            <path d="m 130.81474,133.62264 c 1.839,0.004 3.6776,0.01 5.5165,0.0136 4.1357,-9.27241 12.2532,-15.97101 22.5069,-17.57731 11.4245,-1.7897 22.35891,3.5165 28.87871,12.8506 2.896,4.1453 -3.9102,8.02631 -6.7815,3.9157 -8.9418,-12.8018 -28.03511,-11.6449 -35.88101,0.8327 1.6987,0.004 3.3975,0.008 5.0964,0.0121 0.4752,0.001 0.8128,0.21271 1.0216,0.51131 0.3412,0.3657 0.4709,0.90129 0.1136,1.4547 -3.2351,5.0204 -6.4701,10.0405 -9.7059,15.0601 -0.544,0.8436 -1.7172,0.8367 -2.2562,-0.008 -3.2098,-5.036 -6.42,-10.0718 -9.6298,-15.1078 -0.5311,-0.8325 0.1684,-1.9601 1.1207,-1.9576 z"
                  class="fil2" id="path105" inkscape:connector-curvature="0"
                  style="clip-rule:evenodd;fill:#6666ff;fill-rule:nonzero;stroke-width:.01;image-rendering:optimizeQuality;shape-rendering:geometricPrecision;text-rendering:geometricPrecision"></path>
            <path d="m 144.65664,161.18114 c 8.8726,12.70451 27.7421,11.66311 35.69961,-0.5419 -1.62801,-0.004 -3.256,-0.008 -4.88411,-0.012 -0.4738,-0.001 -0.8109,-0.2115 -1.02029,-0.5092 -0.3419,-0.3659 -0.4723,-0.9013 -0.1148,-1.4566 3.2344,-5.0196 6.46959,-10.0405 9.7046,-15.05941 0.5431,-0.8443 1.717,-0.8374 2.2561,0.008 3.21,5.03521 6.4206,10.07101 9.6312,15.10701 0.5308,0.8333 -0.1685,1.9605 -1.121,1.9578 -1.896,-0.005 -3.7918,-0.01 -5.6879,-0.0142 -4.1758,9.12 -12.2224,15.6976 -22.36751,17.2868 -11.4246,1.7899 -22.3589,-3.5158 -28.8773,-12.8506 -2.8954,-4.1462 3.9105,-8.0271 6.7814,-3.9159 z"
                  class="fil3" id="path107" inkscape:connector-curvature="0"
                  style="clip-rule:evenodd;fill:#6699ff;fill-rule:nonzero;stroke-width:.01;image-rendering:optimizeQuality;shape-rendering:geometricPrecision;text-rendering:geometricPrecision"></path>
            <path d="m 39.613927,161.23654 c -2.7119,0.5056 -5.469699,0.5401 -8.273499,0.1034 -2.803801,-0.4366 -5.446803,-1.2755 -7.928801,-2.5165 -1.195102,-0.6435 -2.275202,-1.4364 -3.240503,-2.3786 -0.9652,-0.9423 -1.7926,-1.965 -2.481998,-3.0681 -1.149101,-1.8845 -1.942002,-3.9299 -2.378702,-6.1362 -0.4366,-2.2063 -0.539999,-4.4125 -0.3102,-6.6188 0.183801,-2.0224 0.540102,-4.0104 1.068602,-5.9638 0.5286,-1.9535 1.321498,-3.7806 2.378699,-5.4812 0.9193,-1.47091 2.1258,-2.79231 3.619601,-3.9644 1.493901,-1.17211 3.0911,-1.942 4.7918,-2.30971 0.0919,0 0.2643,-0.0115 0.517101,-0.0345 0.252799,-0.023 0.425098,-0.0574 0.517099,-0.1034 0.643501,-0.3217 1.3329,-0.5286 2.068301,-0.6205 0.735499,-0.0919 1.470901,-0.1839 2.2063,-0.2758 2.8038,-0.2758 5.5616,-0.1838 8.273502,0.2758 2.482099,0.4137 4.803198,1.3789 6.9636,2.8957 1.103099,0.7814 2.091299,1.71221 2.964599,2.7923 0.873302,1.0802 1.562801,2.2408 2.068401,3.48181 0.4596,1.1951 0.850299,2.4246 1.172101,3.68859 0.321699,1.26401 0.551598,2.5395 0.689399,3.82651 0.137901,1.51679 0.115001,3.0566 -0.0689,4.6194 -0.183899,1.5627 -0.517099,3.1025 -0.999699,4.6194 -0.4826,1.5168 -1.103202,2.9646 -1.861601,4.3435 -0.758399,1.379 -1.6432,2.643 -2.6544,3.7921 -1.149102,1.3329 -2.5165,2.4246 -4.102301,3.2749 -1.585701,0.8503 -3.251899,1.4364 -4.998501,1.7581 z m -6.825699,-17.6501 c 0.229798,0.9192 0.563099,1.7926 0.999699,2.6199 0.4367,0.8274 0.9653,1.5283 1.585801,2.1029 0.620498,0.5745 1.321498,0.9652 2.1028,1.172 0.781399,0.2069 1.585798,0.1264 2.4131,-0.2413 0.643499,-0.2298 1.2181,-0.586 1.7237,-1.0686 0.5056,-0.4827 0.9423,-0.9997 1.31,-1.5513 0.827301,-1.333 1.390401,-2.8038 1.6891,-4.4126 0.298801,-1.6087 0.333301,-3.1944 0.103499,-4.7572 -0.137898,-1.0112 -0.379198,-1.9994 -0.723998,-2.9647 -0.344701,-0.9652 -0.8158,-1.8156 -1.413401,-2.551 -0.597501,-0.7354 -1.287,-1.27551 -2.068301,-1.6202 -0.781399,-0.3447 -1.654699,-0.40221 -2.619999,-0.1724 -0.8733,0.2298 -1.654702,0.701 -2.3441,1.4134 -0.689502,0.7124 -1.2411,1.4594 -1.654702,2.2408 -0.781399,1.4708 -1.2641,3.068 -1.4479,4.7917 -0.183899,1.7236 -0.069,3.3898 0.344702,4.9986 z"
                  class="fil4" id="path111" inkscape:connector-curvature="0"
                  style="clip-rule:evenodd;fill:#343a40;fill-rule:nonzero;stroke-width:.01;image-rendering:optimizeQuality;shape-rendering:geometricPrecision;text-rendering:geometricPrecision"></path>
        </g>
    </g>
</svg>